<?xml version="1.0" encoding="utf-8"?>
<!DOCTYPE svg PUBLIC "-//W3C//DTD SVG 1.1//EN" "http://www.w3.org/Graphics/SVG/1.1/DTD/svg11.dtd">
<svg style="width:308px;height:308px;" version="1.1" id="图形" xmlns="http://www.w3.org/2000/svg" xmlns:xlink="http://www.w3.org/1999/xlink" x="0px" y="0px" width="1024px" height="1024px" viewBox="0 0 1024 1024" enable-background="new 0 0 1024 1024" xml:space="preserve">
  <path class="svgpath" data-index="path_0" fill="#fff" d="M933.195901 801.591561c-40.897456-113.910353-129.770576-206.342532-241.162572-253.046227 59.525722-50.763151 97.447403-125.982296 97.447403-210.004945 0-152.456251-124.483152-276.503475-277.480732-276.503475S234.518245 186.083116 234.518245 338.539366c0 84.022649 37.921681 159.26226 97.447403 210.004945-111.391996 46.725184-200.264093 139.135874-241.162572 253.025761-9.115612 25.39232-5.348821 53.615105 10.135848 75.489298 11.593036 16.442484 28.222785 27.556613 47.204092 32.031531l0.082888 0.207731c0 0 387.207809 119.384018 727.774345-0.249687 4.974291-1.165546 9.719362-2.934842 14.319124-5.016247 0.145309-0.041956 0.291642-0.082888 0.416486-0.124843l0-0.062422c12.738116-5.806239 23.893176-14.839986 32.323173-26.786063C938.544723 855.185176 942.312536 826.983881 933.195901 801.591561L933.195901 801.591561z" />

</svg>
